# xmcd
#
# Track frame offsets:
#	182
#	18202
#	29552
#	42332
#	53967
#	73427
#	86872
#	100282
#	117962
#	134440
#
# Disc length: 2003 seconds
#
# Revision: 0
# Processed by: cddbd v1.4PL0 Copyright (c) Steve Scherf et al.
# Submitted via: EasyCDDAExtractor 5.0.4.1
#
DISCID=9207d10a
DTITLE=Williams, Hank Jr. - The Early Years Part 2
DYEAR=1977
DGENRE=country
TTITLE0=Feelin' Better
TTITLE1=She's Still The Star {On The Stage Of My Mind}
TTITLE2=Honey, Won't You Call Me
TTITLE3=Building Memories
TTITLE4=New South
TTITLE5=Long Way To Hollywood
TTITLE6=Angels Get Lonesome Sometimes
TTITLE7=Mongomery In The Rain
TTITLE8=Looking At The Rain
TTITLE9=You Love The Thunder
EXTD=
EXTT0=
EXTT1=
EXTT2=
EXTT3=
EXTT4=
EXTT5=
EXTT6=
EXTT7=
EXTT8=
EXTT9=
PLAYORDER=
